<svg width="174" height="45" viewBox="0 0 174 45" fill="none" xmlns="http://www.w3.org/2000/svg">
<path d="M0.362628 18.2573C0.174599 18.1767 0.0604381 18.029 0.020146 17.8141C-0.020146 17.5992 -1.11461e-07 17.4112 0.0805839 17.25C1.71913 14.8325 3.82774 12.9656 6.40643 11.6494C8.98512 10.3332 11.7518 9.67511 14.7066 9.67511C17.5808 9.67511 20.2938 10.2996 22.8456 11.5487C25.3974 12.7977 27.506 14.5907 29.1714 16.9277C29.3326 17.1694 29.393 17.391 29.3527 17.5925C29.3124 17.794 29.2117 17.9618 29.0505 18.0961C28.8894 18.2305 28.7013 18.2909 28.4865 18.2775C28.2716 18.264 28.097 18.1364 27.9627 17.8947C26.4584 15.7726 24.5311 14.1408 22.1808 12.9992C19.8304 11.8576 17.339 11.2734 14.7066 11.2465C12.0473 11.2465 9.55592 11.8173 7.23242 12.9589C4.90891 14.1005 3.00847 15.7592 1.5311 17.935C1.34307 18.1767 1.14161 18.3178 0.926717 18.358C0.711826 18.3983 0.523796 18.3648 0.362628 18.2573ZM19.864 38.6854C16.7212 38.0407 14.2567 36.6238 12.4704 34.4346C10.6841 32.2454 9.79096 29.6331 9.79096 26.5978C9.79096 25.2278 10.2678 24.0594 11.2213 23.0924C12.1749 22.1253 13.3367 21.6418 14.7066 21.6418C16.0765 21.6418 17.245 22.1052 18.212 23.0319C19.179 23.9586 19.6625 25.0935 19.6625 26.4366C19.6625 27.3767 19.9916 28.1692 20.6497 28.8138C21.3078 29.4585 22.1069 29.7808 23.047 29.7808C23.9603 29.7808 24.7393 29.4585 25.384 28.8138C26.0286 28.1692 26.351 27.3767 26.351 26.4366C26.351 23.2938 25.2094 20.6547 22.9262 18.5192C20.6429 16.3837 17.8897 15.316 14.6663 15.316C11.4429 15.316 8.70308 16.4106 6.44672 18.5998C4.19037 20.789 3.06219 23.4684 3.06219 26.6381C3.06219 27.6319 3.13606 28.6124 3.2838 29.5794C3.43154 30.5464 3.68 31.4865 4.0292 32.3998C4.10979 32.6684 4.1165 32.8833 4.04935 33.0445C3.9822 33.2057 3.8546 33.3265 3.66657 33.4071C3.45168 33.4877 3.23679 33.5011 3.0219 33.4474C2.80701 33.3937 2.64584 33.2191 2.5384 32.9236C2.26978 32.1446 2.03475 31.2112 1.83329 30.1233C1.63183 29.0354 1.5311 27.8602 1.5311 26.5978C1.5311 23.0789 2.82716 20.0369 5.41928 17.4716C8.0114 14.9064 11.1072 13.6237 14.7066 13.6237C18.3597 13.6237 21.4756 14.8661 24.0543 17.3507C26.633 19.8354 27.9224 22.864 27.9224 26.4366C27.9224 27.7797 27.4523 28.9347 26.5121 29.9017C25.572 30.8687 24.417 31.3522 23.047 31.3522C21.6502 31.3522 20.4683 30.8889 19.5013 29.9621C18.5343 29.0354 18.0508 27.914 18.0508 26.5978C18.0508 25.6576 17.7285 24.8518 17.0838 24.1802C16.4391 23.5087 15.6467 23.1729 14.7066 23.1729C13.7933 23.1729 13.0076 23.5087 12.3495 24.1802C11.6914 24.8518 11.3623 25.6576 11.3623 26.5978C11.3623 29.3376 12.1413 31.6477 13.6993 33.528C15.2572 35.4083 17.4599 36.6573 20.3072 37.2752C20.5489 37.302 20.7101 37.4027 20.7907 37.5773C20.8713 37.7519 20.8981 37.9333 20.8713 38.1213C20.8175 38.3362 20.7168 38.4973 20.5691 38.6048C20.4213 38.7122 20.1863 38.7391 19.864 38.6854ZM5.27825 9.55424C5.00964 9.68855 4.78804 9.72884 4.61344 9.67511C4.43884 9.62139 4.29782 9.51395 4.19037 9.35278C4.10979 9.24533 4.08292 9.06402 4.10979 8.80884C4.13665 8.55365 4.24409 8.38577 4.43212 8.30518C5.99008 7.3919 7.64877 6.72708 9.40819 6.31073C11.1676 5.89438 12.9337 5.6862 14.7066 5.6862C16.4794 5.6862 18.2187 5.89438 19.9244 6.31073C21.6301 6.72708 23.2619 7.35161 24.8199 8.18431C25.0616 8.29175 25.2027 8.45292 25.243 8.66781C25.2832 8.8827 25.2631 9.07073 25.1825 9.2319C25.0751 9.39307 24.9273 9.52066 24.7393 9.61468C24.5513 9.70869 24.3498 9.68855 24.1349 9.55424C22.6844 8.82898 21.16 8.26489 19.5618 7.86197C17.9635 7.45905 16.3451 7.25759 14.7066 7.25759C13.0412 7.25759 11.4161 7.44562 9.83125 7.82168C8.24643 8.19774 6.72877 8.77526 5.27825 9.55424ZM10.355 38.0004C8.79709 36.4156 7.62862 34.6897 6.84964 32.8229C6.07066 30.956 5.68117 28.881 5.68117 26.5978C5.68117 24.1265 6.55417 22.0179 8.30016 20.2719C10.0461 18.5259 12.1816 17.6529 14.7066 17.6529C17.2047 17.6529 19.3469 18.5058 21.1332 20.2115C22.9194 21.9172 23.8126 23.9922 23.8126 26.4366C23.8126 26.7052 23.7521 26.9268 23.6313 27.1014C23.5104 27.276 23.3157 27.3633 23.047 27.3633C22.7516 27.3633 22.5367 27.276 22.4024 27.1014C22.2681 26.9268 22.2009 26.7052 22.2009 26.4366C22.2009 24.3951 21.4689 22.676 20.005 21.2792C18.541 19.8824 16.7749 19.184 14.7066 19.184C12.6383 19.184 10.8788 19.9093 9.42833 21.3598C7.97782 22.8103 7.25256 24.5563 7.25256 26.5978C7.25256 28.7467 7.58833 30.6203 8.25986 32.2185C8.9314 33.8167 10.0327 35.4083 11.5638 36.9931C11.7518 37.1811 11.8459 37.3692 11.8459 37.5572C11.8459 37.7452 11.7921 37.9064 11.6847 38.0407C11.5504 38.2287 11.3422 38.3227 11.0602 38.3227C10.7781 38.3227 10.5431 38.2153 10.355 38.0004ZM23.3291 35.2606C20.7235 35.2606 18.5075 34.5017 16.6809 32.9841C14.8543 31.4664 13.941 29.2973 13.941 26.4769C13.941 26.2351 14.0082 26.0337 14.1425 25.8725C14.2768 25.7113 14.4648 25.6308 14.7066 25.6308C14.9483 25.6308 15.1364 25.7113 15.2707 25.8725C15.405 26.0337 15.4721 26.2351 15.4721 26.4769C15.4721 28.8407 16.2444 30.6404 17.7889 31.876C19.3335 33.1116 21.1802 33.7295 23.3291 33.7295C23.5977 33.7295 23.9066 33.7026 24.2558 33.6489C24.605 33.5951 24.9273 33.5683 25.2228 33.5683C25.4377 33.5683 25.619 33.6354 25.7668 33.7697C25.9145 33.904 25.9749 34.0518 25.9481 34.213C25.9481 34.4278 25.9011 34.5957 25.807 34.7166C25.713 34.8375 25.5854 34.9248 25.4243 34.9785C25.0482 35.1128 24.6654 35.1934 24.2759 35.2203C23.8865 35.2471 23.5708 35.2606 23.3291 35.2606Z" fill="white"/>
<path d="M45.1449 44.1992C44.3987 44.1992 43.7463 44.0419 43.1876 43.7271C42.6324 43.4124 42.2027 42.9686 41.8986 42.3957C41.598 41.8229 41.4478 41.1439 41.4478 40.3589V40.099C41.4478 39.3493 41.5945 38.6845 41.888 38.1046C42.1815 37.5246 42.597 37.072 43.1345 36.7467C43.6756 36.4178 44.3192 36.2533 45.0653 36.2533C45.5887 36.2533 46.0784 36.3276 46.5346 36.4761C46.9943 36.6247 47.4045 36.851 47.7652 37.1551V39.0222H46.6142L46.455 37.85C46.3313 37.7615 46.204 37.6891 46.0731 37.6325C45.7938 37.5087 45.4702 37.4468 45.1024 37.4468C44.6604 37.4468 44.2838 37.5547 43.9726 37.7704C43.3219 38.2124 42.9966 38.9851 42.9966 40.0884V40.3589C42.9966 40.8929 43.085 41.3614 43.2618 41.7645C43.4386 42.1606 43.6897 42.4682 44.015 42.6875C44.3404 42.9032 44.7258 43.0111 45.1714 43.0111C45.3942 43.0111 45.6169 42.9863 45.8397 42.9368C46.066 42.8838 46.2711 42.8166 46.455 42.7352L46.6142 41.6478H47.7652V43.4937C47.4646 43.6918 47.0898 43.8597 46.6407 43.9977C46.1916 44.132 45.693 44.1992 45.1449 44.1992Z" fill="white"/>
<path d="M57.125 44.1992C56.6052 44.1992 56.1313 44.102 55.7034 43.9075C55.2755 43.713 54.9078 43.4389 54.6001 43.0853C54.2889 42.7352 54.0502 42.3233 53.884 41.8494C53.7178 41.372 53.6347 40.8504 53.6347 40.2846V40.1679C53.6347 39.6057 53.7178 39.0876 53.884 38.6138C54.0502 38.1364 54.2872 37.7209 54.5948 37.3673C54.9025 37.0136 55.2702 36.7396 55.6981 36.5451C56.126 36.3506 56.5999 36.2533 57.1197 36.2533C57.643 36.2533 58.1204 36.3506 58.5518 36.5451C58.9833 36.7396 59.3546 37.0136 59.6657 37.3673C59.9769 37.7209 60.2156 38.1364 60.3818 38.6138C60.5516 39.0876 60.6364 39.6057 60.6364 40.1679V40.2846C60.6364 40.8504 60.5516 41.372 60.3818 41.8494C60.2156 42.3233 59.9769 42.7352 59.6657 43.0853C59.3546 43.4389 58.9833 43.713 58.5518 43.9075C58.124 44.102 57.6483 44.1992 57.125 44.1992ZM57.125 42.9951C57.5635 42.9951 57.9277 42.882 58.2177 42.6557C58.5076 42.4293 58.7251 42.1129 58.8701 41.7062C59.0186 41.2995 59.0929 40.8257 59.0929 40.2846V40.1573C59.0929 39.6234 59.0186 39.153 58.8701 38.7464C58.7216 38.3433 58.5006 38.0285 58.2071 37.8022C57.9171 37.5759 57.5546 37.4627 57.1197 37.4627C56.6883 37.4627 56.3293 37.5741 56.0429 37.7969C55.7565 38.0232 55.5408 38.3379 55.3958 38.7411C55.2543 39.1442 55.1836 39.6163 55.1836 40.1573V40.2846C55.1836 40.8186 55.2561 41.2925 55.4011 41.7062C55.5461 42.1129 55.7618 42.4293 56.0482 42.6557C56.3346 42.882 56.6936 42.9951 57.125 42.9951Z" fill="white"/>
<path d="M68.4951 42.0032L68.1556 43.0641L68.6914 43.1596V44.0878H66.0604V43.1596L66.6121 43.08L69.068 36.3647H70.654L73.0939 43.08L73.6456 43.1596V44.0878H71.0146V43.1596L71.5504 43.0641L71.2109 42.0032H68.4951ZM69.9432 38.2159L69.8689 37.9826H69.8371L69.7575 38.2319L68.8611 40.8628H70.8449L69.9432 38.2159Z" fill="white"/>
<path d="M82.7189 44.1992C81.9728 44.1992 81.3204 44.0419 80.7616 43.7271C80.2065 43.4124 79.7768 42.9686 79.4727 42.3957C79.1721 41.8229 79.0218 41.1439 79.0218 40.3589V40.099C79.0218 39.3493 79.1686 38.6845 79.4621 38.1046C79.7556 37.5246 80.1711 37.072 80.7086 36.7467C81.2496 36.4178 81.8932 36.2533 82.6394 36.2533C83.1627 36.2533 83.6525 36.3276 84.1087 36.4761C84.5684 36.6247 84.9786 36.851 85.3393 37.1551V39.0222H84.1882L84.0291 37.85C83.9053 37.7615 83.778 37.6891 83.6472 37.6325C83.3678 37.5087 83.0443 37.4468 82.6765 37.4468C82.2345 37.4468 81.8579 37.5547 81.5467 37.7704C80.896 38.2124 80.5707 38.9851 80.5707 40.0884V40.3589C80.5707 40.8929 80.6591 41.3614 80.8359 41.7645C81.0127 42.1606 81.2638 42.4682 81.5891 42.6875C81.9144 42.9032 82.2999 43.0111 82.7455 43.0111C82.9682 43.0111 83.191 42.9863 83.4138 42.9368C83.6401 42.8838 83.8452 42.8166 84.0291 42.7352L84.1882 41.6478H85.3393V43.4937C85.0387 43.6918 84.6639 43.8597 84.2148 43.9977C83.7657 44.132 83.2671 44.1992 82.7189 44.1992Z" fill="white"/>
<path d="M93.5321 40.8787V43.0004L94.3596 43.1596V44.0878H91.1611V43.1596L91.9832 43.0004V37.4574L91.1611 37.2983V36.3647H94.3596V37.2983L93.5321 37.4574V39.6852H96.6829V37.4574L95.8554 37.2983V36.3647H99.0539V37.2983L98.2264 37.4574V43.0004L99.0539 43.1596V44.0878H95.8554V43.1596L96.6829 43.0004V40.8787H93.5321Z" fill="white"/>
<path d="M107.125 37.4574V43.0004L107.947 43.1596V44.0878H104.754V43.1596L105.576 43.0004V37.4574L104.754 37.2983V36.3647H107.947V37.2983L107.125 37.4574Z" fill="white"/>
<path d="M115.853 38.7888V43.0004L116.845 43.1596V44.0878H113.647V43.1596L114.469 43.0004V37.4574L113.647 37.2983V36.3647H116.039L119.402 41.7221L119.434 41.7168V37.4574L118.447 37.2983V36.3647H121.646V37.2983L120.818 37.4574V44.0878H119.322L115.885 38.7835L115.853 38.7888Z" fill="white"/>
<path d="M130.852 44.1992C130.084 44.1992 129.43 44.0401 128.889 43.7218C128.348 43.4036 127.932 42.9615 127.642 42.3957C127.356 41.83 127.213 41.174 127.213 40.4278V40.1626C127.213 39.3917 127.356 38.7128 127.642 38.1258C127.929 37.5388 128.334 37.0808 128.857 36.752C129.384 36.4196 130.006 36.2533 130.724 36.2533C131.279 36.2533 131.801 36.3294 132.289 36.4814C132.777 36.6335 133.201 36.8616 133.562 37.1657V38.879H132.416L132.199 37.8446C132.061 37.7244 131.875 37.6289 131.642 37.5582C131.409 37.484 131.142 37.4468 130.841 37.4468C130.41 37.4468 130.038 37.56 129.727 37.7863C129.416 38.0126 129.175 38.3291 129.006 38.7358C128.839 39.1424 128.756 39.6145 128.756 40.152V40.4278C128.756 40.9441 128.839 41.3985 129.006 41.7911C129.172 42.1765 129.412 42.4771 129.727 42.6928C130.045 42.905 130.436 43.0111 130.899 43.0111C131.172 43.0111 131.421 42.9863 131.647 42.9368C131.877 42.8838 132.066 42.8201 132.215 42.7458V41.4357L131.111 41.3508V40.2634H133.769V43.3877C133.426 43.6317 133.012 43.8279 132.528 43.9764C132.047 44.125 131.488 44.1992 130.852 44.1992Z" fill="white"/>
<path d="M108.836 0.199219H112.935V4.29828H108.836V0.199219Z" fill="white"/>
<path d="M108.836 6.50546H112.935V25.4242H108.836V6.50546Z" fill="white"/>
<path d="M88.0366 6.50546H96.6131C97.7272 6.50546 98.7783 6.63159 99.7663 6.88384C100.754 7.11507 101.616 7.51446 102.352 8.08202C103.088 8.64958 103.666 9.39582 104.086 10.3207C104.527 11.2246 104.748 12.3387 104.748 13.663V25.4242H100.649V13.663C100.649 12.9904 100.523 12.4333 100.271 11.9919C100.04 11.5294 99.7137 11.1616 99.2933 10.8883C98.8939 10.594 98.4104 10.3838 97.8428 10.2577C97.2963 10.1316 96.7077 10.0685 96.0771 10.0685H92.1357V10.071H88.0366V6.50546Z" fill="white"/>
<path fill-rule="evenodd" clip-rule="evenodd" d="M121.386 24.9512C122.374 25.2665 123.425 25.4242 124.539 25.4242H129.647V31.7304H133.746V6.50546H124.539C123.425 6.50546 122.374 6.67363 121.386 7.00996C120.398 7.32527 119.536 7.8613 118.8 8.61805C118.064 9.35378 117.476 10.3207 117.034 11.5189C116.614 12.7171 116.404 14.1991 116.404 15.9648C116.404 17.7306 116.614 19.2125 117.034 20.4107C117.476 21.6089 118.064 22.5864 118.8 23.3431C119.536 24.0789 120.398 24.6149 121.386 24.9512ZM129.647 10.0685V21.8612H125.075C124.444 21.8612 123.845 21.7666 123.277 21.5774C122.731 21.3882 122.247 21.0729 121.827 20.6314C121.428 20.169 121.102 19.5594 120.85 18.8026C120.618 18.0459 120.503 17.0999 120.503 15.9648C120.503 14.8297 120.618 13.8838 120.85 13.127C121.102 12.3703 121.428 11.7712 121.827 11.3297C122.247 10.8673 122.731 10.5415 123.277 10.3523C123.845 10.1631 124.444 10.0685 125.075 10.0685H129.647Z" fill="white"/>
<path d="M137.834 6.50546H141.933V18.2666C141.933 18.9393 142.048 19.5068 142.28 19.9693C142.532 20.4107 142.858 20.7786 143.257 21.0729C143.678 21.3462 144.161 21.5459 144.708 21.672C145.275 21.7981 145.874 21.8612 146.505 21.8612H150.446V6.50546H154.545V25.4242H145.969C144.855 25.4242 143.804 25.3086 142.816 25.0773C141.828 24.8251 140.966 24.4152 140.23 23.8476C139.494 23.2801 138.906 22.5443 138.464 21.6404C138.044 20.7155 137.834 19.5909 137.834 18.2666V6.50546Z" fill="white"/>
<path d="M162.985 24.9512C163.973 25.2665 165.024 25.4242 166.138 25.4242H173.169V21.8612H166.674C166.127 21.8612 165.612 21.7981 165.129 21.672C164.645 21.5459 164.204 21.3251 163.804 21.0098C163.426 20.6945 163.1 20.2741 162.827 19.7486C162.554 19.2231 162.354 18.5609 162.228 17.7621H173.169V14.1675H162.228C162.354 13.3898 162.554 12.7381 162.827 12.2126C163.1 11.6871 163.426 11.2667 163.804 10.9514C164.204 10.6361 164.645 10.4153 165.129 10.2892C165.612 10.1421 166.127 10.0685 166.674 10.0685H173.169V6.50546H166.138C165.024 6.50546 163.973 6.67363 162.985 7.00996C161.997 7.32527 161.135 7.8613 160.399 8.61805C159.663 9.35378 159.075 10.3207 158.633 11.5189C158.213 12.7171 158.003 14.1991 158.003 15.9648C158.003 17.7306 158.213 19.2125 158.633 20.4107C159.075 21.6089 159.663 22.5864 160.399 23.3431C161.135 24.0789 161.997 24.6149 162.985 24.9512Z" fill="white"/>
<path d="M41.401 16.0913L32.8876 3.35273H38.2479L43.6082 11.9608L48.9685 3.35273H54.3288L45.8154 16.0913V25.4246H41.401V16.0913Z" fill="white"/>
<path fill-rule="evenodd" clip-rule="evenodd" d="M53.8399 15.9652C53.8399 14.1364 54.0816 12.5914 54.5651 11.3301C55.0485 10.0689 55.7002 9.04937 56.52 8.2716C57.3608 7.47281 58.3383 6.90525 59.4524 6.56891C60.5665 6.21156 61.7647 6.03289 63.047 6.03289C64.3082 6.03289 65.4959 6.21156 66.61 6.56891C67.7241 6.90525 68.7016 7.47281 69.5424 8.2716C70.3832 9.04937 71.0454 10.0689 71.5289 11.3301C72.0334 12.5914 72.2856 14.1364 72.2856 15.9652C72.2856 17.794 72.0334 19.3391 71.5289 20.6003C71.0454 21.8616 70.3832 22.8916 69.5424 23.6904C68.7016 24.4681 67.7241 25.0357 66.61 25.3931C65.4959 25.7294 64.3082 25.8976 63.047 25.8976C61.7647 25.8976 60.5665 25.7294 59.4524 25.3931C58.3383 25.0357 57.3608 24.4681 56.52 23.6904C55.7002 22.8916 55.0485 21.8616 54.5651 20.6003C54.0816 19.3391 53.8399 17.794 53.8399 15.9652ZM63.047 22.3345C63.7407 22.3345 64.3923 22.2294 65.0019 22.0192C65.6325 21.809 66.1791 21.4622 66.6415 20.9787C67.104 20.4952 67.4718 19.8436 67.7451 19.0237C68.0184 18.2039 68.155 17.1844 68.155 15.9652C68.155 14.746 68.0184 13.7265 67.7451 12.9067C67.4718 12.0869 67.104 11.4352 66.6415 10.9518C66.1791 10.4683 65.6325 10.1214 65.0019 9.91122C64.3923 9.70102 63.7407 9.59591 63.047 9.59591C62.3533 9.59591 61.6911 9.70102 61.0605 9.91122C60.4509 10.1214 59.9149 10.4683 59.4524 10.9518C58.9899 11.4352 58.6221 12.0869 58.3488 12.9067C58.0755 13.7265 57.9389 14.746 57.9389 15.9652C57.9389 17.1844 58.0755 18.2039 58.3488 19.0237C58.6221 19.8436 58.9899 20.4952 59.4524 20.9787C59.9149 21.4622 60.4509 21.809 61.0605 22.0192C61.6911 22.2294 62.3533 22.3345 63.047 22.3345Z" fill="white"/>
<path d="M79.523 6.50585H75.424V18.267C75.424 19.5913 75.6342 20.7159 76.0546 21.6408C76.496 22.5447 77.0846 23.2805 77.8203 23.848C78.556 24.4156 79.4179 24.8255 80.4059 25.0777C81.3938 25.309 82.4449 25.4246 83.559 25.4246H92.1355V12.279H88.0364V21.8616H84.095C83.4644 21.8616 82.8653 21.7985 82.2977 21.6724C81.7512 21.5462 81.2677 21.3465 80.8473 21.0733C80.4479 20.779 80.1221 20.4111 79.8699 19.9697C79.6386 19.5072 79.523 18.9397 79.523 18.267V6.50585Z" fill="white"/>
<path d="M45.1449 44.1992C44.3987 44.1992 43.7463 44.0419 43.1876 43.7271C42.6324 43.4124 42.2027 42.9686 41.8986 42.3957C41.598 41.8229 41.4478 41.1439 41.4478 40.3589V40.099C41.4478 39.3493 41.5945 38.6845 41.888 38.1046C42.1815 37.5246 42.597 37.072 43.1345 36.7467C43.6756 36.4178 44.3192 36.2533 45.0653 36.2533C45.5887 36.2533 46.0784 36.3276 46.5346 36.4761C46.9943 36.6247 47.4045 36.851 47.7652 37.1551V39.0222H46.6142L46.455 37.85C46.3313 37.7615 46.204 37.6891 46.0731 37.6325C45.7938 37.5087 45.4702 37.4468 45.1024 37.4468C44.6604 37.4468 44.2838 37.5547 43.9726 37.7704C43.3219 38.2124 42.9966 38.9851 42.9966 40.0884V40.3589C42.9966 40.8929 43.085 41.3614 43.2618 41.7645C43.4386 42.1606 43.6897 42.4682 44.015 42.6875C44.3404 42.9032 44.7258 43.0111 45.1714 43.0111C45.3942 43.0111 45.6169 42.9863 45.8397 42.9368C46.066 42.8838 46.2711 42.8166 46.455 42.7352L46.6142 41.6478H47.7652V43.4937C47.4646 43.6918 47.0898 43.8597 46.6407 43.9977C46.1916 44.132 45.693 44.1992 45.1449 44.1992Z" fill="white"/>
<path d="M57.125 44.1992C56.6052 44.1992 56.1313 44.102 55.7034 43.9075C55.2755 43.713 54.9078 43.4389 54.6001 43.0853C54.2889 42.7352 54.0502 42.3233 53.884 41.8494C53.7178 41.372 53.6347 40.8504 53.6347 40.2846V40.1679C53.6347 39.6057 53.7178 39.0876 53.884 38.6138C54.0502 38.1364 54.2872 37.7209 54.5948 37.3673C54.9025 37.0136 55.2702 36.7396 55.6981 36.5451C56.126 36.3506 56.5999 36.2533 57.1197 36.2533C57.643 36.2533 58.1204 36.3506 58.5518 36.5451C58.9833 36.7396 59.3546 37.0136 59.6657 37.3673C59.9769 37.7209 60.2156 38.1364 60.3818 38.6138C60.5516 39.0876 60.6364 39.6057 60.6364 40.1679V40.2846C60.6364 40.8504 60.5516 41.372 60.3818 41.8494C60.2156 42.3233 59.9769 42.7352 59.6657 43.0853C59.3546 43.4389 58.9833 43.713 58.5518 43.9075C58.124 44.102 57.6483 44.1992 57.125 44.1992ZM57.125 42.9951C57.5635 42.9951 57.9277 42.882 58.2177 42.6557C58.5076 42.4293 58.7251 42.1129 58.8701 41.7062C59.0186 41.2995 59.0929 40.8257 59.0929 40.2846V40.1573C59.0929 39.6234 59.0186 39.153 58.8701 38.7464C58.7216 38.3433 58.5006 38.0285 58.2071 37.8022C57.9171 37.5759 57.5546 37.4627 57.1197 37.4627C56.6883 37.4627 56.3293 37.5741 56.0429 37.7969C55.7565 38.0232 55.5408 38.3379 55.3958 38.7411C55.2543 39.1442 55.1836 39.6163 55.1836 40.1573V40.2846C55.1836 40.8186 55.2561 41.2925 55.4011 41.7062C55.5461 42.1129 55.7618 42.4293 56.0482 42.6557C56.3346 42.882 56.6936 42.9951 57.125 42.9951Z" fill="white"/>
<path d="M68.4951 42.0032L68.1556 43.0641L68.6914 43.1596V44.0878H66.0604V43.1596L66.6121 43.08L69.068 36.3647H70.654L73.0939 43.08L73.6456 43.1596V44.0878H71.0146V43.1596L71.5504 43.0641L71.2109 42.0032H68.4951ZM69.9432 38.2159L69.8689 37.9826H69.8371L69.7575 38.2319L68.8611 40.8628H70.8449L69.9432 38.2159Z" fill="white"/>
<path d="M82.7189 44.1992C81.9728 44.1992 81.3204 44.0419 80.7616 43.7271C80.2065 43.4124 79.7768 42.9686 79.4727 42.3957C79.1721 41.8229 79.0218 41.1439 79.0218 40.3589V40.099C79.0218 39.3493 79.1686 38.6845 79.4621 38.1046C79.7556 37.5246 80.1711 37.072 80.7086 36.7467C81.2496 36.4178 81.8932 36.2533 82.6394 36.2533C83.1627 36.2533 83.6525 36.3276 84.1087 36.4761C84.5684 36.6247 84.9786 36.851 85.3393 37.1551V39.0222H84.1882L84.0291 37.85C83.9053 37.7615 83.778 37.6891 83.6472 37.6325C83.3678 37.5087 83.0443 37.4468 82.6765 37.4468C82.2345 37.4468 81.8579 37.5547 81.5467 37.7704C80.896 38.2124 80.5707 38.9851 80.5707 40.0884V40.3589C80.5707 40.8929 80.6591 41.3614 80.8359 41.7645C81.0127 42.1606 81.2638 42.4682 81.5891 42.6875C81.9144 42.9032 82.2999 43.0111 82.7455 43.0111C82.9682 43.0111 83.191 42.9863 83.4138 42.9368C83.6401 42.8838 83.8452 42.8166 84.0291 42.7352L84.1882 41.6478H85.3393V43.4937C85.0387 43.6918 84.6639 43.8597 84.2148 43.9977C83.7657 44.132 83.2671 44.1992 82.7189 44.1992Z" fill="white"/>
<path d="M93.5321 40.8787V43.0004L94.3596 43.1596V44.0878H91.1611V43.1596L91.9832 43.0004V37.4574L91.1611 37.2983V36.3647H94.3596V37.2983L93.5321 37.4574V39.6852H96.6829V37.4574L95.8554 37.2983V36.3647H99.0539V37.2983L98.2264 37.4574V43.0004L99.0539 43.1596V44.0878H95.8554V43.1596L96.6829 43.0004V40.8787H93.5321Z" fill="white"/>
<path d="M107.125 37.4574V43.0004L107.947 43.1596V44.0878H104.754V43.1596L105.576 43.0004V37.4574L104.754 37.2983V36.3647H107.947V37.2983L107.125 37.4574Z" fill="white"/>
<path d="M115.853 38.7888V43.0004L116.845 43.1596V44.0878H113.647V43.1596L114.469 43.0004V37.4574L113.647 37.2983V36.3647H116.039L119.402 41.7221L119.434 41.7168V37.4574L118.447 37.2983V36.3647H121.646V37.2983L120.818 37.4574V44.0878H119.322L115.885 38.7835L115.853 38.7888Z" fill="white"/>
<path d="M130.852 44.1992C130.084 44.1992 129.43 44.0401 128.889 43.7218C128.348 43.4036 127.932 42.9615 127.642 42.3957C127.356 41.83 127.213 41.174 127.213 40.4278V40.1626C127.213 39.3917 127.356 38.7128 127.642 38.1258C127.929 37.5388 128.334 37.0808 128.857 36.752C129.384 36.4196 130.006 36.2533 130.724 36.2533C131.279 36.2533 131.801 36.3294 132.289 36.4814C132.777 36.6335 133.201 36.8616 133.562 37.1657V38.879H132.416L132.199 37.8446C132.061 37.7244 131.875 37.6289 131.642 37.5582C131.409 37.484 131.142 37.4468 130.841 37.4468C130.41 37.4468 130.038 37.56 129.727 37.7863C129.416 38.0126 129.175 38.3291 129.006 38.7358C128.839 39.1424 128.756 39.6145 128.756 40.152V40.4278C128.756 40.9441 128.839 41.3985 129.006 41.7911C129.172 42.1765 129.412 42.4771 129.727 42.6928C130.045 42.905 130.436 43.0111 130.899 43.0111C131.172 43.0111 131.421 42.9863 131.647 42.9368C131.877 42.8838 132.066 42.8201 132.215 42.7458V41.4357L131.111 41.3508V40.2634H133.769V43.3877C133.426 43.6317 133.012 43.8279 132.528 43.9764C132.047 44.125 131.488 44.1992 130.852 44.1992Z" fill="white"/>
<path d="M108.836 0.199219H112.935V4.29828H108.836V0.199219Z" fill="white"/>
<path d="M108.836 6.50546H112.935V25.4242H108.836V6.50546Z" fill="white"/>
<path d="M88.0366 6.50546H96.6131C97.7272 6.50546 98.7783 6.63159 99.7663 6.88384C100.754 7.11507 101.616 7.51446 102.352 8.08202C103.088 8.64958 103.666 9.39582 104.086 10.3207C104.527 11.2246 104.748 12.3387 104.748 13.663V25.4242H100.649V13.663C100.649 12.9904 100.523 12.4333 100.271 11.9919C100.04 11.5294 99.7137 11.1616 99.2933 10.8883C98.8939 10.594 98.4104 10.3838 97.8428 10.2577C97.2963 10.1316 96.7077 10.0685 96.0771 10.0685H92.1357V10.071H88.0366V6.50546Z" fill="white"/>
<path fill-rule="evenodd" clip-rule="evenodd" d="M121.386 24.9512C122.374 25.2665 123.425 25.4242 124.539 25.4242H129.647V31.7304H133.746V6.50546H124.539C123.425 6.50546 122.374 6.67363 121.386 7.00996C120.398 7.32527 119.536 7.8613 118.8 8.61805C118.064 9.35378 117.476 10.3207 117.034 11.5189C116.614 12.7171 116.404 14.1991 116.404 15.9648C116.404 17.7306 116.614 19.2125 117.034 20.4107C117.476 21.6089 118.064 22.5864 118.8 23.3431C119.536 24.0789 120.398 24.6149 121.386 24.9512ZM129.647 10.0685V21.8612H125.075C124.444 21.8612 123.845 21.7666 123.277 21.5774C122.731 21.3882 122.247 21.0729 121.827 20.6314C121.428 20.169 121.102 19.5594 120.85 18.8026C120.618 18.0459 120.503 17.0999 120.503 15.9648C120.503 14.8297 120.618 13.8838 120.85 13.127C121.102 12.3703 121.428 11.7712 121.827 11.3297C122.247 10.8673 122.731 10.5415 123.277 10.3523C123.845 10.1631 124.444 10.0685 125.075 10.0685H129.647Z" fill="white"/>
<path d="M137.834 6.50546H141.933V18.2666C141.933 18.9393 142.048 19.5068 142.28 19.9693C142.532 20.4107 142.858 20.7786 143.257 21.0729C143.678 21.3462 144.161 21.5459 144.708 21.672C145.275 21.7981 145.874 21.8612 146.505 21.8612H150.446V6.50546H154.545V25.4242H145.969C144.855 25.4242 143.804 25.3086 142.816 25.0773C141.828 24.8251 140.966 24.4152 140.23 23.8476C139.494 23.2801 138.906 22.5443 138.464 21.6404C138.044 20.7155 137.834 19.5909 137.834 18.2666V6.50546Z" fill="white"/>
<path d="M162.985 24.9512C163.973 25.2665 165.024 25.4242 166.138 25.4242H173.169V21.8612H166.674C166.127 21.8612 165.612 21.7981 165.129 21.672C164.645 21.5459 164.204 21.3251 163.804 21.0098C163.426 20.6945 163.1 20.2741 162.827 19.7486C162.554 19.2231 162.354 18.5609 162.228 17.7621H173.169V14.1675H162.228C162.354 13.3898 162.554 12.7381 162.827 12.2126C163.1 11.6871 163.426 11.2667 163.804 10.9514C164.204 10.6361 164.645 10.4153 165.129 10.2892C165.612 10.1421 166.127 10.0685 166.674 10.0685H173.169V6.50546H166.138C165.024 6.50546 163.973 6.67363 162.985 7.00996C161.997 7.32527 161.135 7.8613 160.399 8.61805C159.663 9.35378 159.075 10.3207 158.633 11.5189C158.213 12.7171 158.003 14.1991 158.003 15.9648C158.003 17.7306 158.213 19.2125 158.633 20.4107C159.075 21.6089 159.663 22.5864 160.399 23.3431C161.135 24.0789 161.997 24.6149 162.985 24.9512Z" fill="white"/>
<path d="M41.401 16.0913L32.8876 3.35273H38.2479L43.6082 11.9608L48.9685 3.35273H54.3288L45.8154 16.0913V25.4246H41.401V16.0913Z" fill="white"/>
<path fill-rule="evenodd" clip-rule="evenodd" d="M53.8399 15.9652C53.8399 14.1364 54.0816 12.5914 54.5651 11.3301C55.0485 10.0689 55.7002 9.04937 56.52 8.2716C57.3608 7.47281 58.3383 6.90525 59.4524 6.56891C60.5665 6.21156 61.7647 6.03289 63.047 6.03289C64.3082 6.03289 65.4959 6.21156 66.61 6.56891C67.7241 6.90525 68.7016 7.47281 69.5424 8.2716C70.3832 9.04937 71.0454 10.0689 71.5289 11.3301C72.0334 12.5914 72.2856 14.1364 72.2856 15.9652C72.2856 17.794 72.0334 19.3391 71.5289 20.6003C71.0454 21.8616 70.3832 22.8916 69.5424 23.6904C68.7016 24.4681 67.7241 25.0357 66.61 25.3931C65.4959 25.7294 64.3082 25.8976 63.047 25.8976C61.7647 25.8976 60.5665 25.7294 59.4524 25.3931C58.3383 25.0357 57.3608 24.4681 56.52 23.6904C55.7002 22.8916 55.0485 21.8616 54.5651 20.6003C54.0816 19.3391 53.8399 17.794 53.8399 15.9652ZM63.047 22.3345C63.7407 22.3345 64.3923 22.2294 65.0019 22.0192C65.6325 21.809 66.1791 21.4622 66.6415 20.9787C67.104 20.4952 67.4718 19.8436 67.7451 19.0237C68.0184 18.2039 68.155 17.1844 68.155 15.9652C68.155 14.746 68.0184 13.7265 67.7451 12.9067C67.4718 12.0869 67.104 11.4352 66.6415 10.9518C66.1791 10.4683 65.6325 10.1214 65.0019 9.91122C64.3923 9.70102 63.7407 9.59591 63.047 9.59591C62.3533 9.59591 61.6911 9.70102 61.0605 9.91122C60.4509 10.1214 59.9149 10.4683 59.4524 10.9518C58.9899 11.4352 58.6221 12.0869 58.3488 12.9067C58.0755 13.7265 57.9389 14.746 57.9389 15.9652C57.9389 17.1844 58.0755 18.2039 58.3488 19.0237C58.6221 19.8436 58.9899 20.4952 59.4524 20.9787C59.9149 21.4622 60.4509 21.809 61.0605 22.0192C61.6911 22.2294 62.3533 22.3345 63.047 22.3345Z" fill="white"/>
<path d="M79.523 6.50585H75.424V18.267C75.424 19.5913 75.6342 20.7159 76.0546 21.6408C76.496 22.5447 77.0846 23.2805 77.8203 23.848C78.556 24.4156 79.4179 24.8255 80.4059 25.0777C81.3938 25.309 82.4449 25.4246 83.559 25.4246H92.1355V12.279H88.0364V21.8616H84.095C83.4644 21.8616 82.8653 21.7985 82.2977 21.6724C81.7512 21.5462 81.2677 21.3465 80.8473 21.0733C80.4479 20.779 80.1221 20.4111 79.8699 19.9697C79.6386 19.5072 79.523 18.9397 79.523 18.267V6.50585Z" fill="white"/>
</svg>
