<svg width="174" height="44" viewBox="0 0 174 44" fill="none" xmlns="http://www.w3.org/2000/svg">
<path d="M0.362628 18.0581C0.174599 17.9775 0.0604381 17.8298 0.020146 17.6149C-0.020146 17.4 -1.11461e-07 17.212 0.0805839 17.0508C1.71913 14.6333 3.82774 12.7664 6.40643 11.4502C8.98512 10.134 11.7518 9.47589 14.7066 9.47589C17.5808 9.47589 20.2938 10.1004 22.8456 11.3495C25.3974 12.5985 27.506 14.3915 29.1714 16.7285C29.3326 16.9702 29.393 17.1918 29.3527 17.3933C29.3124 17.5947 29.2117 17.7626 29.0505 17.8969C28.8894 18.0312 28.7013 18.0917 28.4865 18.0782C28.2716 18.0648 28.097 17.9372 27.9627 17.6955C26.4584 15.5734 24.5311 13.9416 22.1808 12.8C19.8304 11.6584 17.339 11.0741 14.7066 11.0473C12.0473 11.0473 9.55592 11.6181 7.23242 12.7597C4.90891 13.9013 3.00847 15.56 1.5311 17.7358C1.34307 17.9775 1.14161 18.1185 0.926717 18.1588C0.711826 18.1991 0.523796 18.1655 0.362628 18.0581ZM19.864 38.4862C16.7212 37.8415 14.2567 36.4245 12.4704 34.2353C10.6841 32.0461 9.79096 29.4339 9.79096 26.3985C9.79096 25.0286 10.2678 23.8601 11.2213 22.8931C12.1749 21.9261 13.3367 21.4426 14.7066 21.4426C16.0765 21.4426 17.245 21.906 18.212 22.8327C19.179 23.7594 19.6625 24.8943 19.6625 26.2374C19.6625 27.1775 19.9916 27.9699 20.6497 28.6146C21.3078 29.2593 22.1069 29.5816 23.047 29.5816C23.9603 29.5816 24.7393 29.2593 25.384 28.6146C26.0286 27.9699 26.351 27.1775 26.351 26.2374C26.351 23.0946 25.2094 20.4555 22.9262 18.32C20.6429 16.1845 17.8897 15.1168 14.6663 15.1168C11.4429 15.1168 8.70308 16.2114 6.44672 18.4006C4.19037 20.5898 3.06219 23.2692 3.06219 26.4388C3.06219 27.4327 3.13606 28.4131 3.2838 29.3802C3.43154 30.3472 3.68 31.2873 4.0292 32.2006C4.10979 32.4692 4.1165 32.6841 4.04935 32.8453C3.9822 33.0064 3.8546 33.1273 3.66657 33.2079C3.45168 33.2885 3.23679 33.3019 3.0219 33.2482C2.80701 33.1945 2.64584 33.0199 2.5384 32.7244C2.26978 31.9454 2.03475 31.012 1.83329 29.9241C1.63183 28.8362 1.5311 27.661 1.5311 26.3985C1.5311 22.8797 2.82716 19.8377 5.41928 17.2724C8.0114 14.7071 11.1072 13.4245 14.7066 13.4245C18.3597 13.4245 21.4756 14.6669 24.0543 17.1515C26.633 19.6362 27.9224 22.6648 27.9224 26.2374C27.9224 27.5804 27.4523 28.7355 26.5121 29.7025C25.572 30.6695 24.417 31.153 23.047 31.153C21.6502 31.153 20.4683 30.6896 19.5013 29.7629C18.5343 28.8362 18.0508 27.7148 18.0508 26.3985C18.0508 25.4584 17.7285 24.6526 17.0838 23.981C16.4391 23.3095 15.6467 22.9737 14.7066 22.9737C13.7933 22.9737 13.0076 23.3095 12.3495 23.981C11.6914 24.6526 11.3623 25.4584 11.3623 26.3985C11.3623 29.1384 12.1413 31.4485 13.6993 33.3288C15.2572 35.2091 17.4599 36.4581 20.3072 37.0759C20.5489 37.1028 20.7101 37.2035 20.7907 37.3781C20.8713 37.5527 20.8981 37.734 20.8713 37.9221C20.8175 38.137 20.7168 38.2981 20.5691 38.4056C20.4213 38.513 20.1863 38.5399 19.864 38.4862ZM5.27825 9.35502C5.00964 9.48933 4.78804 9.52962 4.61344 9.47589C4.43884 9.42217 4.29782 9.31473 4.19037 9.15356C4.10979 9.04611 4.08292 8.8648 4.10979 8.60962C4.13665 8.35443 4.24409 8.18655 4.43212 8.10597C5.99008 7.19268 7.64877 6.52786 9.40819 6.11151C11.1676 5.69516 12.9337 5.48698 14.7066 5.48698C16.4794 5.48698 18.2187 5.69516 19.9244 6.11151C21.6301 6.52786 23.2619 7.15239 24.8199 7.98509C25.0616 8.09254 25.2027 8.2537 25.243 8.46859C25.2832 8.68349 25.2631 8.87152 25.1825 9.03268C25.0751 9.19385 24.9273 9.32144 24.7393 9.41546C24.5513 9.50947 24.3498 9.48933 24.1349 9.35502C22.6844 8.62976 21.16 8.06567 19.5618 7.66275C17.9635 7.25983 16.3451 7.05837 14.7066 7.05837C13.0412 7.05837 11.4161 7.2464 9.83125 7.62246C8.24643 7.99852 6.72877 8.57604 5.27825 9.35502ZM10.355 37.8012C8.79709 36.2164 7.62862 34.4905 6.84964 32.6237C6.07066 30.7568 5.68117 28.6818 5.68117 26.3985C5.68117 23.9273 6.55417 21.8187 8.30016 20.0727C10.0461 18.3267 12.1816 17.4537 14.7066 17.4537C17.2047 17.4537 19.3469 18.3066 21.1332 20.0123C22.9194 21.718 23.8126 23.793 23.8126 26.2374C23.8126 26.506 23.7521 26.7276 23.6313 26.9022C23.5104 27.0768 23.3157 27.1641 23.047 27.1641C22.7516 27.1641 22.5367 27.0768 22.4024 26.9022C22.2681 26.7276 22.2009 26.506 22.2009 26.2374C22.2009 24.1959 21.4689 22.4768 20.005 21.08C18.541 19.6832 16.7749 18.9848 14.7066 18.9848C12.6383 18.9848 10.8788 19.7101 9.42833 21.1606C7.97782 22.6111 7.25256 24.3571 7.25256 26.3985C7.25256 28.5475 7.58833 30.421 8.25986 32.0193C8.9314 33.6175 10.0327 35.2091 11.5638 36.7939C11.7518 36.9819 11.8459 37.1699 11.8459 37.358C11.8459 37.546 11.7921 37.7072 11.6847 37.8415C11.5504 38.0295 11.3422 38.1235 11.0602 38.1235C10.7781 38.1235 10.5431 38.0161 10.355 37.8012ZM23.3291 35.0613C20.7235 35.0613 18.5075 34.3025 16.6809 32.7848C14.8543 31.2672 13.941 29.0981 13.941 26.2777C13.941 26.0359 14.0082 25.8345 14.1425 25.6733C14.2768 25.5121 14.4648 25.4315 14.7066 25.4315C14.9483 25.4315 15.1364 25.5121 15.2707 25.6733C15.405 25.8345 15.4721 26.0359 15.4721 26.2777C15.4721 28.6415 16.2444 30.4412 17.7889 31.6768C19.3335 32.9124 21.1802 33.5302 23.3291 33.5302C23.5977 33.5302 23.9066 33.5034 24.2558 33.4496C24.605 33.3959 24.9273 33.3691 25.2228 33.3691C25.4377 33.3691 25.619 33.4362 25.7668 33.5705C25.9145 33.7048 25.9749 33.8526 25.9481 34.0137C25.9481 34.2286 25.9011 34.3965 25.807 34.5174C25.713 34.6383 25.5854 34.7256 25.4243 34.7793C25.0482 34.9136 24.6654 34.9942 24.2759 35.021C23.8865 35.0479 23.5708 35.0613 23.3291 35.0613Z" fill="#F03023"/>
<path d="M45.1449 44C44.3987 44 43.7463 43.8426 43.1876 43.5279C42.6324 43.2132 42.2027 42.7694 41.8986 42.1965C41.598 41.6237 41.4478 40.9447 41.4478 40.1597V39.8998C41.4478 39.1501 41.5945 38.4853 41.888 37.9053C42.1815 37.3254 42.597 36.8728 43.1345 36.5474C43.6756 36.2186 44.3192 36.0541 45.0653 36.0541C45.5887 36.0541 46.0784 36.1284 46.5346 36.2769C46.9943 36.4254 47.4045 36.6518 47.7652 36.9559V38.823H46.6142L46.455 37.6507C46.3313 37.5623 46.204 37.4898 46.0731 37.4333C45.7938 37.3095 45.4702 37.2476 45.1024 37.2476C44.6604 37.2476 44.2838 37.3555 43.9726 37.5712C43.3219 38.0132 42.9966 38.7859 42.9966 39.8892V40.1597C42.9966 40.6936 43.085 41.1622 43.2618 41.5653C43.4386 41.9614 43.6897 42.269 44.015 42.4883C44.3404 42.704 44.7258 42.8118 45.1714 42.8118C45.3942 42.8118 45.6169 42.7871 45.8397 42.7376C46.066 42.6845 46.2711 42.6173 46.455 42.536L46.6142 41.4486H47.7652V43.2945C47.4646 43.4925 47.0898 43.6605 46.6407 43.7984C46.1916 43.9328 45.693 44 45.1449 44Z" fill="black"/>
<path d="M57.125 44C56.6052 44 56.1313 43.9028 55.7034 43.7083C55.2755 43.5138 54.9078 43.2397 54.6001 42.8861C54.2889 42.536 54.0502 42.124 53.884 41.6502C53.7178 41.1728 53.6347 40.6512 53.6347 40.0854V39.9687C53.6347 39.4065 53.7178 38.8884 53.884 38.4146C54.0502 37.9372 54.2872 37.5217 54.5948 37.168C54.9025 36.8144 55.2702 36.5404 55.6981 36.3459C56.126 36.1514 56.5999 36.0541 57.1197 36.0541C57.643 36.0541 58.1204 36.1514 58.5518 36.3459C58.9833 36.5404 59.3546 36.8144 59.6657 37.168C59.9769 37.5217 60.2156 37.9372 60.3818 38.4146C60.5516 38.8884 60.6364 39.4065 60.6364 39.9687V40.0854C60.6364 40.6512 60.5516 41.1728 60.3818 41.6502C60.2156 42.124 59.9769 42.536 59.6657 42.8861C59.3546 43.2397 58.9833 43.5138 58.5518 43.7083C58.124 43.9028 57.6483 44 57.125 44ZM57.125 42.7959C57.5635 42.7959 57.9277 42.6828 58.2177 42.4564C58.5076 42.2301 58.7251 41.9136 58.8701 41.507C59.0186 41.1003 59.0929 40.6265 59.0929 40.0854V39.9581C59.0929 39.4241 59.0186 38.9538 58.8701 38.5472C58.7216 38.144 58.5006 37.8293 58.2071 37.603C57.9171 37.3767 57.5546 37.2635 57.1197 37.2635C56.6883 37.2635 56.3293 37.3749 56.0429 37.5977C55.7565 37.824 55.5408 38.1387 55.3958 38.5419C55.2543 38.945 55.1836 39.4171 55.1836 39.9581V40.0854C55.1836 40.6194 55.2561 41.0932 55.4011 41.507C55.5461 41.9136 55.7618 42.2301 56.0482 42.4564C56.3346 42.6828 56.6936 42.7959 57.125 42.7959Z" fill="black"/>
<path d="M68.4951 41.804L68.1556 42.8649L68.6914 42.9604V43.8886H66.0604V42.9604L66.6121 42.8808L69.068 36.1655H70.654L73.0939 42.8808L73.6456 42.9604V43.8886H71.0146V42.9604L71.5504 42.8649L71.2109 41.804H68.4951ZM69.9432 38.0167L69.8689 37.7833H69.8371L69.7575 38.0326L68.8611 40.6636H70.8449L69.9432 38.0167Z" fill="black"/>
<path d="M82.7189 44C81.9728 44 81.3204 43.8426 80.7616 43.5279C80.2065 43.2132 79.7768 42.7694 79.4727 42.1965C79.1721 41.6237 79.0218 40.9447 79.0218 40.1597V39.8998C79.0218 39.1501 79.1686 38.4853 79.4621 37.9053C79.7556 37.3254 80.1711 36.8728 80.7086 36.5474C81.2496 36.2186 81.8932 36.0541 82.6394 36.0541C83.1627 36.0541 83.6525 36.1284 84.1087 36.2769C84.5684 36.4254 84.9786 36.6518 85.3393 36.9559V38.823H84.1882L84.0291 37.6507C83.9053 37.5623 83.778 37.4898 83.6472 37.4333C83.3678 37.3095 83.0443 37.2476 82.6765 37.2476C82.2345 37.2476 81.8579 37.3555 81.5467 37.5712C80.896 38.0132 80.5707 38.7859 80.5707 39.8892V40.1597C80.5707 40.6936 80.6591 41.1622 80.8359 41.5653C81.0127 41.9614 81.2638 42.269 81.5891 42.4883C81.9144 42.704 82.2999 42.8118 82.7455 42.8118C82.9682 42.8118 83.191 42.7871 83.4138 42.7376C83.6401 42.6845 83.8452 42.6173 84.0291 42.536L84.1882 41.4486H85.3393V43.2945C85.0387 43.4925 84.6639 43.6605 84.2148 43.7984C83.7657 43.9328 83.2671 44 82.7189 44Z" fill="black"/>
<path d="M93.5321 40.6795V42.8012L94.3596 42.9604V43.8886H91.1611V42.9604L91.9832 42.8012V37.2582L91.1611 37.0991V36.1655H94.3596V37.0991L93.5321 37.2582V39.486H96.6829V37.2582L95.8554 37.0991V36.1655H99.0539V37.0991L98.2264 37.2582V42.8012L99.0539 42.9604V43.8886H95.8554V42.9604L96.6829 42.8012V40.6795H93.5321Z" fill="black"/>
<path d="M107.125 37.2582V42.8012L107.947 42.9604V43.8886H104.754V42.9604L105.576 42.8012V37.2582L104.754 37.0991V36.1655H107.947V37.0991L107.125 37.2582Z" fill="black"/>
<path d="M115.853 38.5896V42.8012L116.845 42.9604V43.8886H113.647V42.9604L114.469 42.8012V37.2582L113.647 37.0991V36.1655H116.039L119.402 41.5229L119.434 41.5176V37.2582L118.447 37.0991V36.1655H121.646V37.0991L120.818 37.2582V43.8886H119.322L115.885 38.5843L115.853 38.5896Z" fill="black"/>
<path d="M130.852 44C130.084 44 129.43 43.8409 128.889 43.5226C128.348 43.2044 127.932 42.7623 127.642 42.1965C127.356 41.6307 127.213 40.9748 127.213 40.2286V39.9634C127.213 39.1925 127.356 38.5136 127.642 37.9266C127.929 37.3395 128.334 36.8816 128.857 36.5527C129.384 36.2203 130.006 36.0541 130.724 36.0541C131.279 36.0541 131.801 36.1302 132.289 36.2822C132.777 36.4343 133.201 36.6624 133.562 36.9665V38.6798H132.416L132.199 37.6454C132.061 37.5252 131.875 37.4297 131.642 37.359C131.409 37.2847 131.142 37.2476 130.841 37.2476C130.41 37.2476 130.038 37.3608 129.727 37.5871C129.416 37.8134 129.175 38.1299 129.006 38.5366C128.839 38.9432 128.756 39.4153 128.756 39.9528V40.2286C128.756 40.7449 128.839 41.1993 129.006 41.5918C129.172 41.9773 129.412 42.2779 129.727 42.4936C130.045 42.7057 130.436 42.8118 130.899 42.8118C131.172 42.8118 131.421 42.7871 131.647 42.7376C131.877 42.6845 132.066 42.6209 132.215 42.5466V41.2365L131.111 41.1516V40.0642H133.769V43.1884C133.426 43.4324 133.012 43.6287 132.528 43.7772C132.047 43.9257 131.488 44 130.852 44Z" fill="black"/>
<path d="M108.836 0H112.935V4.09906H108.836V0Z" fill="#F03023"/>
<path d="M108.836 6.30624H112.935V25.225H108.836V6.30624Z" fill="#F03023"/>
<path d="M88.0366 6.30624H96.6131C97.7272 6.30624 98.7783 6.43237 99.7663 6.68462C100.754 6.91585 101.616 7.31524 102.352 7.8828C103.088 8.45037 103.666 9.1966 104.086 10.1215C104.527 11.0254 104.748 12.1395 104.748 13.4638V25.225H100.649V13.4638C100.649 12.7912 100.523 12.2341 100.271 11.7927C100.04 11.3302 99.7137 10.9624 99.2933 10.6891C98.8939 10.3948 98.4104 10.1846 97.8428 10.0585C97.2963 9.93233 96.7077 9.86927 96.0771 9.86927H92.1357V9.87183H88.0366V6.30624Z" fill="#F03023"/>
<path fill-rule="evenodd" clip-rule="evenodd" d="M121.386 24.752C122.374 25.0673 123.425 25.225 124.539 25.225H129.647V31.5312H133.746V6.30624H124.539C123.425 6.30624 122.374 6.47441 121.386 6.81074C120.398 7.12605 119.536 7.66209 118.8 8.41883C118.064 9.15456 117.476 10.1215 117.034 11.3197C116.614 12.5179 116.404 13.9999 116.404 15.7656C116.404 17.5314 116.614 19.0133 117.034 20.2115C117.476 21.4097 118.064 22.3872 118.8 23.1439C119.536 23.8796 120.398 24.4157 121.386 24.752ZM129.647 9.86927V21.6619H125.075C124.444 21.6619 123.845 21.5674 123.277 21.3782C122.731 21.189 122.247 20.8737 121.827 20.4322C121.428 19.9698 121.102 19.3602 120.85 18.6034C120.618 17.8467 120.503 16.9007 120.503 15.7656C120.503 14.6305 120.618 13.6845 120.85 12.9278C121.102 12.171 121.428 11.572 121.827 11.1305C122.247 10.6681 122.731 10.3422 123.277 10.1531C123.845 9.96386 124.444 9.86927 125.075 9.86927H129.647Z" fill="#F03023"/>
<path d="M137.834 6.30624H141.933V18.0674C141.933 18.7401 142.048 19.3076 142.28 19.7701C142.532 20.2115 142.858 20.5794 143.257 20.8737C143.678 21.1469 144.161 21.3466 144.708 21.4728C145.275 21.5989 145.874 21.6619 146.505 21.6619H150.446V6.30624H154.545V25.225H145.969C144.855 25.225 143.804 25.1094 142.816 24.8781C141.828 24.6259 140.966 24.216 140.23 23.6484C139.494 23.0808 138.906 22.3451 138.464 21.4412C138.044 20.5163 137.834 19.3917 137.834 18.0674V6.30624Z" fill="#F03023"/>
<path d="M162.985 24.752C163.973 25.0673 165.024 25.225 166.138 25.225H173.169V21.6619H166.674C166.127 21.6619 165.612 21.5989 165.129 21.4728C164.645 21.3466 164.204 21.1259 163.804 20.8106C163.426 20.4953 163.1 20.0749 162.827 19.5494C162.554 19.0238 162.354 18.3617 162.228 17.5629H173.169V13.9683H162.228C162.354 13.1906 162.554 12.5389 162.827 12.0134C163.1 11.4879 163.426 11.0675 163.804 10.7521C164.204 10.4368 164.645 10.2161 165.129 10.09C165.612 9.94284 166.127 9.86927 166.674 9.86927H173.169V6.30624H166.138C165.024 6.30624 163.973 6.47441 162.985 6.81074C161.997 7.12605 161.135 7.66209 160.399 8.41883C159.663 9.15456 159.075 10.1215 158.633 11.3197C158.213 12.5179 158.003 13.9999 158.003 15.7656C158.003 17.5314 158.213 19.0133 158.633 20.2115C159.075 21.4097 159.663 22.3872 160.399 23.1439C161.135 23.8796 161.997 24.4157 162.985 24.752Z" fill="#F03023"/>
<path d="M41.401 15.8921L32.8876 3.15351H38.2479L43.6082 11.7615L48.9685 3.15351H54.3288L45.8154 15.8921V25.2254H41.401V15.8921Z" fill="black"/>
<path fill-rule="evenodd" clip-rule="evenodd" d="M53.8399 15.766C53.8399 13.9372 54.0816 12.3922 54.5651 11.1309C55.0485 9.86966 55.7002 8.85015 56.52 8.07238C57.3608 7.27359 58.3383 6.70603 59.4524 6.3697C60.5665 6.01234 61.7647 5.83367 63.047 5.83367C64.3082 5.83367 65.4959 6.01234 66.61 6.3697C67.7241 6.70603 68.7016 7.27359 69.5424 8.07238C70.3832 8.85015 71.0454 9.86966 71.5289 11.1309C72.0334 12.3922 72.2856 13.9372 72.2856 15.766C72.2856 17.5948 72.0334 19.1398 71.5289 20.4011C71.0454 21.6623 70.3832 22.6924 69.5424 23.4911C68.7016 24.2689 67.7241 24.8365 66.61 25.1938C65.4959 25.5302 64.3082 25.6983 63.047 25.6983C61.7647 25.6983 60.5665 25.5302 59.4524 25.1938C58.3383 24.8365 57.3608 24.2689 56.52 23.4911C55.7002 22.6924 55.0485 21.6623 54.5651 20.4011C54.0816 19.1398 53.8399 17.5948 53.8399 15.766ZM63.047 22.1353C63.7407 22.1353 64.3923 22.0302 65.0019 21.82C65.6325 21.6098 66.1791 21.2629 66.6415 20.7795C67.104 20.296 67.4718 19.6443 67.7451 18.8245C68.0184 18.0047 68.155 16.9852 68.155 15.766C68.155 14.5468 68.0184 13.5273 67.7451 12.7075C67.4718 11.8877 67.104 11.236 66.6415 10.7525C66.1791 10.2691 65.6325 9.92221 65.0019 9.712C64.3923 9.5018 63.7407 9.39669 63.047 9.39669C62.3533 9.39669 61.6911 9.5018 61.0605 9.712C60.4509 9.92221 59.9149 10.2691 59.4524 10.7525C58.9899 11.236 58.6221 11.8877 58.3488 12.7075C58.0755 13.5273 57.9389 14.5468 57.9389 15.766C57.9389 16.9852 58.0755 18.0047 58.3488 18.8245C58.6221 19.6443 58.9899 20.296 59.4524 20.7795C59.9149 21.2629 60.4509 21.6098 61.0605 21.82C61.6911 22.0302 62.3533 22.1353 63.047 22.1353Z" fill="black"/>
<path d="M79.523 6.30663H75.424V18.0678C75.424 19.3921 75.6342 20.5167 76.0546 21.4416C76.496 22.3455 77.0846 23.0812 77.8203 23.6488C78.556 24.2164 79.4179 24.6263 80.4059 24.8785C81.3938 25.1098 82.4449 25.2254 83.559 25.2254H92.1355V12.0797H88.0364V21.6623H84.095C83.4644 21.6623 82.8653 21.5993 82.2977 21.4732C81.7512 21.347 81.2677 21.1473 80.8473 20.8741C80.4479 20.5798 80.1221 20.2119 79.8699 19.7705C79.6386 19.308 79.523 18.7404 79.523 18.0678V6.30663Z" fill="black"/>
<path d="M45.1449 44C44.3987 44 43.7463 43.8426 43.1876 43.5279C42.6324 43.2132 42.2027 42.7694 41.8986 42.1965C41.598 41.6237 41.4478 40.9447 41.4478 40.1597V39.8998C41.4478 39.1501 41.5945 38.4853 41.888 37.9053C42.1815 37.3254 42.597 36.8728 43.1345 36.5474C43.6756 36.2186 44.3192 36.0541 45.0653 36.0541C45.5887 36.0541 46.0784 36.1284 46.5346 36.2769C46.9943 36.4254 47.4045 36.6518 47.7652 36.9559V38.823H46.6142L46.455 37.6507C46.3313 37.5623 46.204 37.4898 46.0731 37.4333C45.7938 37.3095 45.4702 37.2476 45.1024 37.2476C44.6604 37.2476 44.2838 37.3555 43.9726 37.5712C43.3219 38.0132 42.9966 38.7859 42.9966 39.8892V40.1597C42.9966 40.6936 43.085 41.1622 43.2618 41.5653C43.4386 41.9614 43.6897 42.269 44.015 42.4883C44.3404 42.704 44.7258 42.8118 45.1714 42.8118C45.3942 42.8118 45.6169 42.7871 45.8397 42.7376C46.066 42.6845 46.2711 42.6173 46.455 42.536L46.6142 41.4486H47.7652V43.2945C47.4646 43.4925 47.0898 43.6605 46.6407 43.7984C46.1916 43.9328 45.693 44 45.1449 44Z" fill="black"/>
<path d="M57.125 44C56.6052 44 56.1313 43.9028 55.7034 43.7083C55.2755 43.5138 54.9078 43.2397 54.6001 42.8861C54.2889 42.536 54.0502 42.124 53.884 41.6502C53.7178 41.1728 53.6347 40.6512 53.6347 40.0854V39.9687C53.6347 39.4065 53.7178 38.8884 53.884 38.4146C54.0502 37.9372 54.2872 37.5217 54.5948 37.168C54.9025 36.8144 55.2702 36.5404 55.6981 36.3459C56.126 36.1514 56.5999 36.0541 57.1197 36.0541C57.643 36.0541 58.1204 36.1514 58.5518 36.3459C58.9833 36.5404 59.3546 36.8144 59.6657 37.168C59.9769 37.5217 60.2156 37.9372 60.3818 38.4146C60.5516 38.8884 60.6364 39.4065 60.6364 39.9687V40.0854C60.6364 40.6512 60.5516 41.1728 60.3818 41.6502C60.2156 42.124 59.9769 42.536 59.6657 42.8861C59.3546 43.2397 58.9833 43.5138 58.5518 43.7083C58.124 43.9028 57.6483 44 57.125 44ZM57.125 42.7959C57.5635 42.7959 57.9277 42.6828 58.2177 42.4564C58.5076 42.2301 58.7251 41.9136 58.8701 41.507C59.0186 41.1003 59.0929 40.6265 59.0929 40.0854V39.9581C59.0929 39.4241 59.0186 38.9538 58.8701 38.5472C58.7216 38.144 58.5006 37.8293 58.2071 37.603C57.9171 37.3767 57.5546 37.2635 57.1197 37.2635C56.6883 37.2635 56.3293 37.3749 56.0429 37.5977C55.7565 37.824 55.5408 38.1387 55.3958 38.5419C55.2543 38.945 55.1836 39.4171 55.1836 39.9581V40.0854C55.1836 40.6194 55.2561 41.0932 55.4011 41.507C55.5461 41.9136 55.7618 42.2301 56.0482 42.4564C56.3346 42.6828 56.6936 42.7959 57.125 42.7959Z" fill="black"/>
<path d="M68.4951 41.804L68.1556 42.8649L68.6914 42.9604V43.8886H66.0604V42.9604L66.6121 42.8808L69.068 36.1655H70.654L73.0939 42.8808L73.6456 42.9604V43.8886H71.0146V42.9604L71.5504 42.8649L71.2109 41.804H68.4951ZM69.9432 38.0167L69.8689 37.7833H69.8371L69.7575 38.0326L68.8611 40.6636H70.8449L69.9432 38.0167Z" fill="black"/>
<path d="M82.7189 44C81.9728 44 81.3204 43.8426 80.7616 43.5279C80.2065 43.2132 79.7768 42.7694 79.4727 42.1965C79.1721 41.6237 79.0218 40.9447 79.0218 40.1597V39.8998C79.0218 39.1501 79.1686 38.4853 79.4621 37.9053C79.7556 37.3254 80.1711 36.8728 80.7086 36.5474C81.2496 36.2186 81.8932 36.0541 82.6394 36.0541C83.1627 36.0541 83.6525 36.1284 84.1087 36.2769C84.5684 36.4254 84.9786 36.6518 85.3393 36.9559V38.823H84.1882L84.0291 37.6507C83.9053 37.5623 83.778 37.4898 83.6472 37.4333C83.3678 37.3095 83.0443 37.2476 82.6765 37.2476C82.2345 37.2476 81.8579 37.3555 81.5467 37.5712C80.896 38.0132 80.5707 38.7859 80.5707 39.8892V40.1597C80.5707 40.6936 80.6591 41.1622 80.8359 41.5653C81.0127 41.9614 81.2638 42.269 81.5891 42.4883C81.9144 42.704 82.2999 42.8118 82.7455 42.8118C82.9682 42.8118 83.191 42.7871 83.4138 42.7376C83.6401 42.6845 83.8452 42.6173 84.0291 42.536L84.1882 41.4486H85.3393V43.2945C85.0387 43.4925 84.6639 43.6605 84.2148 43.7984C83.7657 43.9328 83.2671 44 82.7189 44Z" fill="black"/>
<path d="M93.5321 40.6795V42.8012L94.3596 42.9604V43.8886H91.1611V42.9604L91.9832 42.8012V37.2582L91.1611 37.0991V36.1655H94.3596V37.0991L93.5321 37.2582V39.486H96.6829V37.2582L95.8554 37.0991V36.1655H99.0539V37.0991L98.2264 37.2582V42.8012L99.0539 42.9604V43.8886H95.8554V42.9604L96.6829 42.8012V40.6795H93.5321Z" fill="black"/>
<path d="M107.125 37.2582V42.8012L107.947 42.9604V43.8886H104.754V42.9604L105.576 42.8012V37.2582L104.754 37.0991V36.1655H107.947V37.0991L107.125 37.2582Z" fill="black"/>
<path d="M115.853 38.5896V42.8012L116.845 42.9604V43.8886H113.647V42.9604L114.469 42.8012V37.2582L113.647 37.0991V36.1655H116.039L119.402 41.5229L119.434 41.5176V37.2582L118.447 37.0991V36.1655H121.646V37.0991L120.818 37.2582V43.8886H119.322L115.885 38.5843L115.853 38.5896Z" fill="black"/>
<path d="M130.852 44C130.084 44 129.43 43.8409 128.889 43.5226C128.348 43.2044 127.932 42.7623 127.642 42.1965C127.356 41.6307 127.213 40.9748 127.213 40.2286V39.9634C127.213 39.1925 127.356 38.5136 127.642 37.9266C127.929 37.3395 128.334 36.8816 128.857 36.5527C129.384 36.2203 130.006 36.0541 130.724 36.0541C131.279 36.0541 131.801 36.1302 132.289 36.2822C132.777 36.4343 133.201 36.6624 133.562 36.9665V38.6798H132.416L132.199 37.6454C132.061 37.5252 131.875 37.4297 131.642 37.359C131.409 37.2847 131.142 37.2476 130.841 37.2476C130.41 37.2476 130.038 37.3608 129.727 37.5871C129.416 37.8134 129.175 38.1299 129.006 38.5366C128.839 38.9432 128.756 39.4153 128.756 39.9528V40.2286C128.756 40.7449 128.839 41.1993 129.006 41.5918C129.172 41.9773 129.412 42.2779 129.727 42.4936C130.045 42.7057 130.436 42.8118 130.899 42.8118C131.172 42.8118 131.421 42.7871 131.647 42.7376C131.877 42.6845 132.066 42.6209 132.215 42.5466V41.2365L131.111 41.1516V40.0642H133.769V43.1884C133.426 43.4324 133.012 43.6287 132.528 43.7772C132.047 43.9257 131.488 44 130.852 44Z" fill="black"/>
<path d="M108.836 0H112.935V4.09906H108.836V0Z" fill="#F03023"/>
<path d="M108.836 6.30624H112.935V25.225H108.836V6.30624Z" fill="#F03023"/>
<path d="M88.0366 6.30624H96.6131C97.7272 6.30624 98.7783 6.43237 99.7663 6.68462C100.754 6.91585 101.616 7.31524 102.352 7.8828C103.088 8.45037 103.666 9.1966 104.086 10.1215C104.527 11.0254 104.748 12.1395 104.748 13.4638V25.225H100.649V13.4638C100.649 12.7912 100.523 12.2341 100.271 11.7927C100.04 11.3302 99.7137 10.9624 99.2933 10.6891C98.8939 10.3948 98.4104 10.1846 97.8428 10.0585C97.2963 9.93233 96.7077 9.86927 96.0771 9.86927H92.1357V9.87183H88.0366V6.30624Z" fill="#F03023"/>
<path fill-rule="evenodd" clip-rule="evenodd" d="M121.386 24.752C122.374 25.0673 123.425 25.225 124.539 25.225H129.647V31.5312H133.746V6.30624H124.539C123.425 6.30624 122.374 6.47441 121.386 6.81074C120.398 7.12605 119.536 7.66209 118.8 8.41883C118.064 9.15456 117.476 10.1215 117.034 11.3197C116.614 12.5179 116.404 13.9999 116.404 15.7656C116.404 17.5314 116.614 19.0133 117.034 20.2115C117.476 21.4097 118.064 22.3872 118.8 23.1439C119.536 23.8796 120.398 24.4157 121.386 24.752ZM129.647 9.86927V21.6619H125.075C124.444 21.6619 123.845 21.5674 123.277 21.3782C122.731 21.189 122.247 20.8737 121.827 20.4322C121.428 19.9698 121.102 19.3602 120.85 18.6034C120.618 17.8467 120.503 16.9007 120.503 15.7656C120.503 14.6305 120.618 13.6845 120.85 12.9278C121.102 12.171 121.428 11.572 121.827 11.1305C122.247 10.6681 122.731 10.3422 123.277 10.1531C123.845 9.96386 124.444 9.86927 125.075 9.86927H129.647Z" fill="#F03023"/>
<path d="M137.834 6.30624H141.933V18.0674C141.933 18.7401 142.048 19.3076 142.28 19.7701C142.532 20.2115 142.858 20.5794 143.257 20.8737C143.678 21.1469 144.161 21.3466 144.708 21.4728C145.275 21.5989 145.874 21.6619 146.505 21.6619H150.446V6.30624H154.545V25.225H145.969C144.855 25.225 143.804 25.1094 142.816 24.8781C141.828 24.6259 140.966 24.216 140.23 23.6484C139.494 23.0808 138.906 22.3451 138.464 21.4412C138.044 20.5163 137.834 19.3917 137.834 18.0674V6.30624Z" fill="#F03023"/>
<path d="M162.985 24.752C163.973 25.0673 165.024 25.225 166.138 25.225H173.169V21.6619H166.674C166.127 21.6619 165.612 21.5989 165.129 21.4728C164.645 21.3466 164.204 21.1259 163.804 20.8106C163.426 20.4953 163.1 20.0749 162.827 19.5494C162.554 19.0238 162.354 18.3617 162.228 17.5629H173.169V13.9683H162.228C162.354 13.1906 162.554 12.5389 162.827 12.0134C163.1 11.4879 163.426 11.0675 163.804 10.7521C164.204 10.4368 164.645 10.2161 165.129 10.09C165.612 9.94284 166.127 9.86927 166.674 9.86927H173.169V6.30624H166.138C165.024 6.30624 163.973 6.47441 162.985 6.81074C161.997 7.12605 161.135 7.66209 160.399 8.41883C159.663 9.15456 159.075 10.1215 158.633 11.3197C158.213 12.5179 158.003 13.9999 158.003 15.7656C158.003 17.5314 158.213 19.0133 158.633 20.2115C159.075 21.4097 159.663 22.3872 160.399 23.1439C161.135 23.8796 161.997 24.4157 162.985 24.752Z" fill="#F03023"/>
<path d="M41.401 15.8921L32.8876 3.15351H38.2479L43.6082 11.7615L48.9685 3.15351H54.3288L45.8154 15.8921V25.2254H41.401V15.8921Z" fill="black"/>
<path fill-rule="evenodd" clip-rule="evenodd" d="M53.8399 15.766C53.8399 13.9372 54.0816 12.3922 54.5651 11.1309C55.0485 9.86966 55.7002 8.85015 56.52 8.07238C57.3608 7.27359 58.3383 6.70603 59.4524 6.3697C60.5665 6.01234 61.7647 5.83367 63.047 5.83367C64.3082 5.83367 65.4959 6.01234 66.61 6.3697C67.7241 6.70603 68.7016 7.27359 69.5424 8.07238C70.3832 8.85015 71.0454 9.86966 71.5289 11.1309C72.0334 12.3922 72.2856 13.9372 72.2856 15.766C72.2856 17.5948 72.0334 19.1398 71.5289 20.4011C71.0454 21.6623 70.3832 22.6924 69.5424 23.4911C68.7016 24.2689 67.7241 24.8365 66.61 25.1938C65.4959 25.5302 64.3082 25.6983 63.047 25.6983C61.7647 25.6983 60.5665 25.5302 59.4524 25.1938C58.3383 24.8365 57.3608 24.2689 56.52 23.4911C55.7002 22.6924 55.0485 21.6623 54.5651 20.4011C54.0816 19.1398 53.8399 17.5948 53.8399 15.766ZM63.047 22.1353C63.7407 22.1353 64.3923 22.0302 65.0019 21.82C65.6325 21.6098 66.1791 21.2629 66.6415 20.7795C67.104 20.296 67.4718 19.6443 67.7451 18.8245C68.0184 18.0047 68.155 16.9852 68.155 15.766C68.155 14.5468 68.0184 13.5273 67.7451 12.7075C67.4718 11.8877 67.104 11.236 66.6415 10.7525C66.1791 10.2691 65.6325 9.92221 65.0019 9.712C64.3923 9.5018 63.7407 9.39669 63.047 9.39669C62.3533 9.39669 61.6911 9.5018 61.0605 9.712C60.4509 9.92221 59.9149 10.2691 59.4524 10.7525C58.9899 11.236 58.6221 11.8877 58.3488 12.7075C58.0755 13.5273 57.9389 14.5468 57.9389 15.766C57.9389 16.9852 58.0755 18.0047 58.3488 18.8245C58.6221 19.6443 58.9899 20.296 59.4524 20.7795C59.9149 21.2629 60.4509 21.6098 61.0605 21.82C61.6911 22.0302 62.3533 22.1353 63.047 22.1353Z" fill="black"/>
<path d="M79.523 6.30663H75.424V18.0678C75.424 19.3921 75.6342 20.5167 76.0546 21.4416C76.496 22.3455 77.0846 23.0812 77.8203 23.6488C78.556 24.2164 79.4179 24.6263 80.4059 24.8785C81.3938 25.1098 82.4449 25.2254 83.559 25.2254H92.1355V12.0797H88.0364V21.6623H84.095C83.4644 21.6623 82.8653 21.5993 82.2977 21.4732C81.7512 21.347 81.2677 21.1473 80.8473 20.8741C80.4479 20.5798 80.1221 20.2119 79.8699 19.7705C79.6386 19.308 79.523 18.7404 79.523 18.0678V6.30663Z" fill="black"/>
</svg>
