<svg width="52" height="41" viewBox="0 0 52 41" fill="none" xmlns="http://www.w3.org/2000/svg">
<path d="M12.3967 18.8886C10.5366 18.8949 8.70946 19.3799 7.09104 20.2968C9.36961 14.3989 13.1488 9.19825 18.0545 5.20946C18.3352 4.97831 18.5676 4.69413 18.7384 4.37317C18.9093 4.0522 19.0153 3.70072 19.0503 3.3388C19.0853 2.97687 19.0487 2.6116 18.9426 2.26382C18.8364 1.91605 18.6628 1.59258 18.4317 1.3119C18.2005 1.03122 17.9164 0.798809 17.5954 0.627949C17.2744 0.457089 16.9229 0.351123 16.561 0.316098C16.1991 0.281073 15.8338 0.317678 15.486 0.423821C15.1383 0.529964 14.8148 0.703566 14.5341 0.934717C4.47591 9.10702 0 20.4225 0 27.4381C0.0173304 29.9187 0.756554 32.3406 2.12741 34.408C3.49827 36.4755 5.44145 38.099 7.71968 39.0805C9.19411 39.7948 10.8088 40.1726 12.447 40.1869C13.889 40.257 15.3302 40.0335 16.6833 39.5299C18.0363 39.0264 19.273 38.2533 20.3183 37.2576C21.3637 36.2618 22.1959 35.0641 22.7645 33.7371C23.3332 32.4101 23.6264 30.9815 23.6264 29.5378C23.6264 28.0941 23.3332 26.6654 22.7645 25.3384C22.1959 24.0114 21.3637 22.8137 20.3183 21.818C19.273 20.8222 18.0363 20.0491 16.6833 19.5456C15.3302 19.042 13.889 18.8185 12.447 18.8886H12.3967Z" fill="#D9D9D9"/>
<path d="M40.4085 18.8885C38.5481 18.8925 36.7203 19.3776 35.1028 20.2966C37.3804 14.4049 41.1496 9.20603 46.0411 5.20932C46.3472 4.98863 46.605 4.70763 46.7985 4.3836C46.992 4.05958 47.1171 3.69938 47.1662 3.32518C47.2153 2.95098 47.1873 2.57069 47.0839 2.20772C46.9805 1.84476 46.8039 1.50679 46.565 1.21462C46.3261 0.922444 46.03 0.68225 45.6948 0.508817C45.3596 0.335385 44.9924 0.232385 44.6159 0.206153C44.2394 0.179921 43.8616 0.231012 43.5056 0.356284C43.1495 0.481556 42.8229 0.678358 42.5458 0.934577C32.4876 9.10688 28.0117 20.4224 28.0117 27.438C28.0236 29.8905 28.7413 32.2877 30.079 34.3433C31.4167 36.3989 33.3178 38.0259 35.5554 39.0301C37.0672 39.7652 38.7274 40.1437 40.4085 40.1365C41.8505 40.2066 43.2917 39.9831 44.6447 39.4795C45.9978 38.976 47.2344 38.2029 48.2798 37.2071C49.3251 36.2114 50.1573 35.0137 50.726 33.6867C51.2946 32.3597 51.5878 30.931 51.5878 29.4873C51.5878 28.0436 51.2946 26.615 50.726 25.288C50.1573 23.961 49.3251 22.7633 48.2798 21.7675C47.2344 20.7718 45.9978 19.9987 44.6447 19.4951C43.2917 18.9916 41.8505 18.7681 40.4085 18.8382V18.8885Z" fill="#D9D9D9"/>
</svg>
