<svg width="32" height="33" viewBox="0 0 32 33" fill="none" xmlns="http://www.w3.org/2000/svg">
<rect y="0.199219" width="32" height="32" rx="16" fill="white"/>
<path d="M16 10.4826C17.8667 10.4826 18.1 10.4826 18.8583 10.5409C20.7833 10.5992 21.6583 11.5326 21.7167 13.3992C21.775 14.1576 21.775 14.3326 21.775 16.1992C21.775 18.0659 21.775 18.2992 21.7167 18.9992C21.6583 20.8659 20.725 21.7992 18.8583 21.8576C18.1 21.9159 17.925 21.9159 16 21.9159C14.1333 21.9159 13.9 21.9159 13.2 21.8576C11.275 21.7992 10.4 20.8659 10.3417 18.9992C10.2833 18.2409 10.2833 18.0659 10.2833 16.1992C10.2833 14.3326 10.2833 14.0992 10.3417 13.3992C10.4 11.5326 11.3333 10.5992 13.2 10.5409C13.9 10.4826 14.1333 10.4826 16 10.4826ZM16 9.19922C14.075 9.19922 13.8417 9.19922 13.1417 9.25755C10.575 9.37422 9.175 10.7742 9.05833 13.3409C9 14.0409 9 14.2742 9 16.1992C9 18.1242 9 18.3576 9.05833 19.0576C9.175 21.6242 10.575 23.0242 13.1417 23.1409C13.8417 23.1992 14.075 23.1992 16 23.1992C17.925 23.1992 18.1583 23.1992 18.8583 23.1409C21.425 23.0242 22.825 21.6242 22.9417 19.0576C23 18.3576 23 18.1242 23 16.1992C23 14.2742 23 14.0409 22.9417 13.3409C22.825 10.7742 21.425 9.37422 18.8583 9.25755C18.1583 9.19922 17.925 9.19922 16 9.19922ZM16 12.5826C14.0167 12.5826 12.3833 14.2159 12.3833 16.1992C12.3833 18.1826 14.0167 19.8159 16 19.8159C17.9833 19.8159 19.6167 18.1826 19.6167 16.1992C19.6167 14.2159 17.9833 12.5826 16 12.5826ZM16 18.5326C14.7167 18.5326 13.6667 17.4826 13.6667 16.1992C13.6667 14.9159 14.7167 13.8659 16 13.8659C17.2833 13.8659 18.3333 14.9159 18.3333 16.1992C18.3333 17.4826 17.2833 18.5326 16 18.5326ZM19.7333 11.6492C19.2667 11.6492 18.9167 11.9992 18.9167 12.4659C18.9167 12.9326 19.2667 13.2826 19.7333 13.2826C20.2 13.2826 20.55 12.9326 20.55 12.4659C20.55 11.9992 20.2 11.6492 19.7333 11.6492Z" fill="black"/>
</svg>
