<svg width="32" height="33" viewBox="0 0 32 33" fill="none" xmlns="http://www.w3.org/2000/svg">
<rect y="0.199219" width="32" height="32" rx="16" fill="white"/>
<path d="M12.348 11.5036C12.348 12.234 11.774 12.8079 11.0436 12.8079C10.3132 12.8079 9.73926 12.234 9.73926 11.5036C9.73926 10.7731 10.3132 10.1992 11.0436 10.1992C11.774 10.1992 12.348 10.7731 12.348 11.5036ZM12.348 13.8514H9.73926V22.1992H12.348V13.8514ZM16.5219 13.8514H13.9132V22.1992H16.5219V17.8166C16.5219 15.3644 19.6523 15.1557 19.6523 17.8166V22.1992H22.261V16.9297C22.261 12.8079 17.6175 12.9644 16.5219 14.9992V13.8514Z" fill="black"/>
</svg>
